<?xml version="1.0" encoding="UTF-8" standalone="no"?>
<svg width="193px" height="193px" viewBox="0 0 193 193" version="1.1" xmlns="http://www.w3.org/2000/svg" xmlns:xlink="http://www.w3.org/1999/xlink" xmlns:sketch="http://www.bohemiancoding.com/sketch/ns">
    <title>coinery_wireframes 1</title>
    <description>Created with Sketch (http://www.bohemiancoding.com/sketch)</description>
    <defs></defs>
    <g id="Add-a-product-step-3-Copy" stroke="none" stroke-width="1" fill="none" fill-rule="evenodd" sketch:type="MSPage">
        <g id="icon_4458" sketch:type="MSLayerGroup" fill="#000000">
            <g id="Group" sketch:type="MSShapeGroup">
                <path d="M96.0105639,122 C107.596241,121.978498 116.982714,111.474563 117,98.5021502 C116.990396,89.7635648 112.741803,82.156007 106.420771,78.1071004 C103.353409,76.1396285 99.7981891,75.0107512 96.0105639,75 C92.2363836,75.008601 88.7003704,76.1224266 85.6464536,78.0662458 C79.2927699,82.1001006 75.0134449,89.7356117 75,98.5 C75.0249691,111.472413 84.4076005,121.984948 96.0105639,122 L96.0105639,122 Z M146.687674,75 C147.195008,76.069901 147.67463,77.165531 148.105224,78.2740256 C150.590733,84.5755065 151.963519,91.4516035 151.963519,98.6450259 C151.952861,129.155428 127.389806,153.855347 97.0648884,153.861779 C66.7271814,153.855347 42.1577314,129.144708 42.1492048,98.6450259 C42.1492048,91.4601799 43.517727,84.588371 46.0011045,78.2933224 C46.4316987,77.2019806 46.8942677,76.1235032 47.3866799,75.0750432 C47.3973382,75.04717 47.4143914,75.0300173 47.429313,75.0042882 L0,75.0042882 L0,184.828873 C0,189.34647 3.63873426,193 8.12586702,193 L184.878396,193 C189.367661,193 193,189.344326 193,184.828873 L193,75.0042882 L146.687674,75 L146.687674,75 Z" id="Shape"></path>
                <path d="M184.880524,0 L8.12586686,0 C3.63873419,0 0,3.72625919 0,8.3272271 L0,61 L58.1451391,61 C68.0829123,50.7593476 81.842742,44.411149 97.0627549,44.4002151 C112.267846,44.4089622 126.031939,50.7593476 135.965449,61 L192.999996,61 L192.999996,8.3272271 C193.00426,3.72407241 189.367657,0 184.880524,0 L184.880524,0 Z M179,33.2000647 C179,38.0685474 175.062712,42 170.204461,42 L159.800065,42 C154.944076,42 151,38.0662841 151,33.2000647 L151,22.804462 C151,17.9337159 154.941813,14 159.800065,14 L170.204461,14 C175.064975,14 179,17.9337159 179,22.804462 L179,33.2000647 L179,33.2000647 Z" id="Shape"></path>
            </g>
        </g>
    </g>
</svg>